<mxfile host="app.diagrams.net" modified="2024-01-13T15:54:29.291Z" agent="Mozilla/5.0 (X11; Linux x86_64; rv:109.0) Gecko/20100101 Firefox/112.0" version="22.1.18" etag="ilfdAPmCLHjjzt8fJAFO" type="github">
  <diagram name="Page-1" id="anJKwnXN8Y9O5HfLo2FT">
    <mxGraphModel>
      <root>
        <mxCell id="0" />
        <mxCell id="1" parent="0" />
      </root>
    </mxGraphModel>
  </diagram>
</mxfile>
